<svg width="576" height="151" viewBox="0 0 576 151" fill="none" xmlns="http://www.w3.org/2000/svg">
<g clip-path="url(#clip0_1_11)">
<path d="M103.27 7L132.486 31.8343C132.748 32.0565 132.922 32.364 132.979 32.7025C133.201 34.0383 131.636 34.9255 130.604 34.0484L103.27 9.5H70H36L8.5 44.027V52.173V60.3189C8.5 64.4088 14.0182 67.7243 18.1081 67.7243H116.816C124.91 67.7243 131.506 74.2234 131.625 82.3174L132.151 118.081L104.751 144H35.1404L10.9047 115.358C10.7725 115.201 10.6849 115.012 10.6513 114.81C10.4607 113.667 11.9035 113.005 12.6456 113.896L35.8809 141.778H103.27L130.67 115.119V84.0162C130.67 75.8364 124.039 69.2054 115.859 69.2054H14.4054C10.3155 69.2054 7 65.8899 7 61.8V52.9135V44.027L35.1404 7H103.27Z" fill="#1F4B88"/>
<path d="M92.9023 35.8811L105.076 45.0112C106.278 45.9128 108.008 45.2197 108.255 43.7374C108.377 43.0045 108.084 42.2642 107.493 41.8139L94.4929 31.9092C93.4611 31.1231 92.1997 30.6973 90.9025 30.6973H55.1951C53.2966 30.6973 51.5131 31.6072 50.3987 33.1442L31.8251 58.7632C31.092 59.7744 30.6972 60.9915 30.6972 62.2405V96.4317C30.6972 97.9682 31.2941 99.4445 32.362 100.549L50.4262 119.236C51.5424 120.391 53.0797 121.043 54.6857 121.043H90.6289C92.0925 121.043 93.5042 120.502 94.5921 119.522L107.243 108.137C107.542 107.867 107.713 107.484 107.713 107.081C107.713 105.871 106.296 105.215 105.374 105.999L92.9023 116.6H52.1727L34.3999 97.3459V60.3189L52.1727 35.8811H92.9023Z" fill="#1F4B88"/>
<path d="M103.27 7L132.486 31.8343C132.748 32.0565 132.922 32.364 132.979 32.7025C133.201 34.0383 131.636 34.9255 130.604 34.0484L103.27 9.5H70H36L8.5 44.027V52.173V60.3189C8.5 64.4088 14.0182 67.7243 18.1081 67.7243H116.816C124.91 67.7243 131.506 74.2234 131.625 82.3174L132.151 118.081L104.751 144H35.1404L10.9047 115.358C10.7725 115.201 10.6849 115.012 10.6513 114.81C10.4607 113.667 11.9035 113.005 12.6456 113.896L35.8809 141.778H103.27L130.67 115.119V84.0162C130.67 75.8364 124.039 69.2054 115.859 69.2054H14.4054C10.3155 69.2054 7 65.8899 7 61.8V52.9135V44.027L35.1404 7H103.27Z" stroke="#1F4B88" stroke-width="14"/>
<path d="M92.9023 35.8811L105.076 45.0112C106.278 45.9128 108.008 45.2197 108.255 43.7374C108.377 43.0045 108.084 42.2642 107.493 41.8139L94.4929 31.9092C93.4611 31.1231 92.1997 30.6973 90.9025 30.6973H55.1951C53.2966 30.6973 51.5131 31.6072 50.3987 33.1442L31.8251 58.7632C31.092 59.7744 30.6972 60.9915 30.6972 62.2405V96.4317C30.6972 97.9682 31.2941 99.4445 32.362 100.549L50.4262 119.236C51.5424 120.391 53.0797 121.043 54.6857 121.043H90.6289C92.0925 121.043 93.5042 120.502 94.5921 119.522L107.243 108.137C107.542 107.867 107.713 107.484 107.713 107.081C107.713 105.871 106.296 105.215 105.374 105.999L92.9023 116.6H52.1727L34.3999 97.3459V60.3189L52.1727 35.8811H92.9023Z" stroke="#1F4B88" stroke-width="14"/>
</g>
<path d="M165.732 66.38C163.756 66.38 161.945 66.1773 160.298 65.772C158.677 65.3667 157.22 64.8093 155.928 64.1C154.636 63.3907 153.471 62.542 152.432 61.554L155.814 56.69C157.511 58.286 159.221 59.4007 160.944 60.034C162.692 60.642 164.415 60.946 166.112 60.946C166.897 60.946 167.657 60.8573 168.392 60.68C169.152 60.5027 169.773 60.224 170.254 59.844C170.761 59.464 171.014 58.9573 171.014 58.324C171.014 57.9187 170.887 57.5767 170.634 57.298C170.381 56.994 170.039 56.7407 169.608 56.538C169.177 56.31 168.671 56.1327 168.088 56.006C167.531 55.8793 166.923 55.7653 166.264 55.664C165.605 55.5627 164.921 55.4613 164.212 55.36C162.591 55.132 161.134 54.8027 159.842 54.372C158.575 53.916 157.486 53.3587 156.574 52.7C155.687 52.016 155.016 51.218 154.56 50.306C154.104 49.394 153.876 48.3427 153.876 47.152C153.876 45.86 154.18 44.6947 154.788 43.656C155.396 42.6173 156.245 41.7433 157.334 41.034C158.423 40.2993 159.665 39.742 161.058 39.362C162.477 38.982 163.997 38.792 165.618 38.792C167.442 38.792 169.051 38.9693 170.444 39.324C171.863 39.6787 173.104 40.1727 174.168 40.806C175.232 41.4393 176.119 42.1487 176.828 42.934L173.332 47.152C172.673 46.544 171.913 46.0247 171.052 45.594C170.216 45.1633 169.329 44.834 168.392 44.606C167.455 44.378 166.517 44.264 165.58 44.264C164.592 44.264 163.731 44.3653 162.996 44.568C162.261 44.7453 161.679 45.0113 161.248 45.366C160.817 45.7207 160.602 46.1767 160.602 46.734C160.602 47.19 160.779 47.5827 161.134 47.912C161.514 48.2413 161.995 48.52 162.578 48.748C163.161 48.9507 163.807 49.1153 164.516 49.242C165.251 49.3687 165.973 49.4827 166.682 49.584C168.151 49.7867 169.545 50.0653 170.862 50.42C172.205 50.7493 173.383 51.2053 174.396 51.788C175.435 52.3707 176.233 53.1307 176.79 54.068C177.373 54.98 177.664 56.158 177.664 57.602C177.664 59.4513 177.145 61.0347 176.106 62.352C175.093 63.644 173.687 64.6447 171.888 65.354C170.115 66.038 168.063 66.38 165.732 66.38ZM199.575 66.38C197.295 66.38 195.205 66.038 193.305 65.354C191.43 64.6447 189.796 63.6693 188.403 62.428C187.035 61.1867 185.971 59.73 185.211 58.058C184.451 56.3607 184.071 54.5367 184.071 52.586C184.071 50.61 184.451 48.786 185.211 47.114C185.971 45.442 187.047 43.9853 188.441 42.744C189.834 41.5027 191.468 40.54 193.343 39.856C195.217 39.1467 197.282 38.792 199.537 38.792C201.817 38.792 203.894 39.134 205.769 39.818C207.669 40.502 209.303 41.4773 210.671 42.744C212.064 43.9853 213.128 45.442 213.863 47.114C214.623 48.786 215.003 50.61 215.003 52.586C215.003 54.562 214.623 56.386 213.863 58.058C213.128 59.73 212.064 61.1993 210.671 62.466C209.303 63.7073 207.669 64.67 205.769 65.354C203.894 66.038 201.829 66.38 199.575 66.38ZM199.575 60.3C200.867 60.3 202.057 60.11 203.147 59.73C204.236 59.3247 205.173 58.78 205.959 58.096C206.744 57.3867 207.352 56.5633 207.783 55.626C208.213 54.6887 208.429 53.6753 208.429 52.586C208.429 51.4967 208.213 50.4833 207.783 49.546C207.352 48.6087 206.744 47.798 205.959 47.114C205.173 46.4047 204.223 45.86 203.109 45.48C202.019 45.0747 200.841 44.872 199.575 44.872C198.283 44.872 197.092 45.0747 196.003 45.48C194.913 45.86 193.963 46.392 193.153 47.076C192.342 47.76 191.721 48.5833 191.291 49.546C190.885 50.4833 190.683 51.4967 190.683 52.586C190.683 53.6753 190.885 54.7013 191.291 55.664C191.721 56.6013 192.342 57.412 193.153 58.096C193.963 58.78 194.913 59.3247 196.003 59.73C197.092 60.11 198.283 60.3 199.575 60.3ZM237.013 66.38C234.834 66.38 232.82 66.0507 230.971 65.392C229.121 64.7333 227.5 63.796 226.107 62.58C224.713 61.3387 223.637 59.882 222.877 58.21C222.117 56.5127 221.737 54.638 221.737 52.586C221.737 50.5847 222.129 48.748 222.915 47.076C223.725 45.404 224.815 43.9473 226.183 42.706C227.576 41.4647 229.197 40.5147 231.047 39.856C232.921 39.1973 234.935 38.868 237.089 38.868C238.583 38.868 240.04 39.0453 241.459 39.4C242.877 39.7547 244.182 40.2487 245.373 40.882C246.589 41.5153 247.615 42.2373 248.451 43.048L244.651 47.912C244.017 47.3293 243.308 46.81 242.523 46.354C241.763 45.8727 240.914 45.5053 239.977 45.252C239.039 44.9733 237.988 44.834 236.823 44.834C235.733 44.834 234.682 45.0113 233.669 45.366C232.681 45.7207 231.781 46.2273 230.971 46.886C230.185 47.5447 229.552 48.368 229.071 49.356C228.615 50.3187 228.387 51.4207 228.387 52.662C228.387 53.878 228.627 54.98 229.109 55.968C229.59 56.9307 230.249 57.754 231.085 58.438C231.946 59.0967 232.921 59.6033 234.011 59.958C235.125 60.2873 236.303 60.452 237.545 60.452C238.735 60.452 239.799 60.3 240.737 59.996C241.674 59.6667 242.523 59.2613 243.283 58.78C244.043 58.2733 244.714 57.792 245.297 57.336L248.375 62.314C247.665 62.9727 246.715 63.6187 245.525 64.252C244.359 64.86 243.042 65.3667 241.573 65.772C240.129 66.1773 238.609 66.38 237.013 66.38ZM256.517 66V60.414H262.483V44.986H256.517V39.4H274.947V44.986H268.943V60.414H274.947V66H256.517ZM298.354 66.38C296.176 66.38 294.162 66.0507 292.312 65.392C290.463 64.7333 288.842 63.796 287.448 62.58C286.055 61.3387 284.978 59.882 284.218 58.21C283.458 56.5127 283.078 54.638 283.078 52.586C283.078 50.5847 283.471 48.748 284.256 47.076C285.067 45.404 286.156 43.9473 287.524 42.706C288.918 41.4647 290.539 40.5147 292.388 39.856C294.263 39.1973 296.277 38.868 298.43 38.868C299.925 38.868 301.382 39.0453 302.8 39.4C304.219 39.7547 305.524 40.2487 306.714 40.882C307.93 41.5153 308.956 42.2373 309.792 43.048L305.992 47.912C305.359 47.3293 304.65 46.81 303.864 46.354C303.104 45.8727 302.256 45.5053 301.318 45.252C300.381 44.9733 299.33 44.834 298.164 44.834C297.075 44.834 296.024 45.0113 295.01 45.366C294.022 45.7207 293.123 46.2273 292.312 46.886C291.527 47.5447 290.894 48.368 290.412 49.356C289.956 50.3187 289.728 51.4207 289.728 52.662C289.728 53.878 289.969 54.98 290.45 55.968C290.932 56.9307 291.59 57.754 292.426 58.438C293.288 59.0967 294.263 59.6033 295.352 59.958C296.467 60.2873 297.645 60.452 298.886 60.452C300.077 60.452 301.141 60.3 302.078 59.996C303.016 59.6667 303.864 59.2613 304.624 58.78C305.384 58.2733 306.056 57.792 306.638 57.336L309.716 62.314C309.007 62.9727 308.057 63.6187 306.866 64.252C305.701 64.86 304.384 65.3667 302.914 65.772C301.47 66.1773 299.95 66.38 298.354 66.38ZM331.387 66.38C329.107 66.38 327.017 66.038 325.117 65.354C323.242 64.6447 321.608 63.6693 320.215 62.428C318.847 61.1867 317.783 59.73 317.023 58.058C316.263 56.3607 315.883 54.5367 315.883 52.586C315.883 50.61 316.263 48.786 317.023 47.114C317.783 45.442 318.86 43.9853 320.253 42.744C321.646 41.5027 323.28 40.54 325.155 39.856C327.03 39.1467 329.094 38.792 331.349 38.792C333.629 38.792 335.706 39.134 337.581 39.818C339.481 40.502 341.115 41.4773 342.483 42.744C343.876 43.9853 344.94 45.442 345.675 47.114C346.435 48.786 346.815 50.61 346.815 52.586C346.815 54.562 346.435 56.386 345.675 58.058C344.94 59.73 343.876 61.1993 342.483 62.466C341.115 63.7073 339.481 64.67 337.581 65.354C335.706 66.038 333.642 66.38 331.387 66.38ZM331.387 60.3C332.679 60.3 333.87 60.11 334.959 59.73C336.048 59.3247 336.986 58.78 337.771 58.096C338.556 57.3867 339.164 56.5633 339.595 55.626C340.026 54.6887 340.241 53.6753 340.241 52.586C340.241 51.4967 340.026 50.4833 339.595 49.546C339.164 48.6087 338.556 47.798 337.771 47.114C336.986 46.4047 336.036 45.86 334.921 45.48C333.832 45.0747 332.654 44.872 331.387 44.872C330.095 44.872 328.904 45.0747 327.815 45.48C326.726 45.86 325.776 46.392 324.965 47.076C324.154 47.76 323.534 48.5833 323.103 49.546C322.698 50.4833 322.495 51.4967 322.495 52.586C322.495 53.6753 322.698 54.7013 323.103 55.664C323.534 56.6013 324.154 57.412 324.965 58.096C325.776 58.78 326.726 59.3247 327.815 59.73C328.904 60.11 330.095 60.3 331.387 60.3ZM355.335 66V39.4H361.339L378.249 58.4L377.223 58.21C377.071 57.298 376.957 56.4367 376.881 55.626C376.805 54.79 376.729 53.9793 376.653 53.194C376.602 52.4087 376.552 51.636 376.501 50.876C376.476 50.116 376.463 49.3307 376.463 48.52C376.463 47.7093 376.463 46.8607 376.463 45.974V39.4H382.733V66H376.653L359.135 46.392L360.845 46.658C360.946 47.3927 361.035 48.0893 361.111 48.748C361.187 49.3813 361.25 50.0147 361.301 50.648C361.377 51.2813 361.44 51.9273 361.491 52.586C361.542 53.2193 361.567 53.916 361.567 54.676C361.592 55.4107 361.605 56.2213 361.605 57.108V66H355.335Z" fill="#1F4B88"/>
<path d="M168.62 114.38C166.441 114.38 164.427 114.051 162.578 113.392C160.729 112.733 159.107 111.796 157.714 110.58C156.321 109.339 155.244 107.882 154.484 106.21C153.724 104.513 153.344 102.638 153.344 100.586C153.344 98.5847 153.737 96.748 154.522 95.076C155.333 93.404 156.422 91.9473 157.79 90.706C159.183 89.4647 160.805 88.5147 162.654 87.856C164.529 87.1973 166.543 86.868 168.696 86.868C170.191 86.868 171.647 87.0453 173.066 87.4C174.485 87.7547 175.789 88.2487 176.98 88.882C178.196 89.5153 179.222 90.2373 180.058 91.048L176.258 95.912C175.625 95.3293 174.915 94.81 174.13 94.354C173.37 93.8727 172.521 93.5053 171.584 93.252C170.647 92.9733 169.595 92.834 168.43 92.834C167.341 92.834 166.289 93.0113 165.276 93.366C164.288 93.7207 163.389 94.2273 162.578 94.886C161.793 95.5447 161.159 96.368 160.678 97.356C160.222 98.3187 159.994 99.4207 159.994 100.662C159.994 101.878 160.235 102.98 160.716 103.968C161.197 104.931 161.856 105.754 162.692 106.438C163.553 107.097 164.529 107.603 165.618 107.958C166.733 108.287 167.911 108.452 169.152 108.452C170.343 108.452 171.407 108.3 172.344 107.996C173.281 107.667 174.13 107.261 174.89 106.78C175.65 106.273 176.321 105.792 176.904 105.336L179.982 110.314C179.273 110.973 178.323 111.619 177.132 112.252C175.967 112.86 174.649 113.367 173.18 113.772C171.736 114.177 170.216 114.38 168.62 114.38ZM201.653 114.38C199.373 114.38 197.283 114.038 195.383 113.354C193.508 112.645 191.874 111.669 190.481 110.428C189.113 109.187 188.049 107.73 187.289 106.058C186.529 104.361 186.149 102.537 186.149 100.586C186.149 98.61 186.529 96.786 187.289 95.114C188.049 93.442 189.125 91.9853 190.519 90.744C191.912 89.5027 193.546 88.54 195.421 87.856C197.295 87.1467 199.36 86.792 201.615 86.792C203.895 86.792 205.972 87.134 207.847 87.818C209.747 88.502 211.381 89.4773 212.749 90.744C214.142 91.9853 215.206 93.442 215.941 95.114C216.701 96.786 217.081 98.61 217.081 100.586C217.081 102.562 216.701 104.386 215.941 106.058C215.206 107.73 214.142 109.199 212.749 110.466C211.381 111.707 209.747 112.67 207.847 113.354C205.972 114.038 203.907 114.38 201.653 114.38ZM201.653 108.3C202.945 108.3 204.135 108.11 205.225 107.73C206.314 107.325 207.251 106.78 208.037 106.096C208.822 105.387 209.43 104.563 209.861 103.626C210.291 102.689 210.507 101.675 210.507 100.586C210.507 99.4967 210.291 98.4833 209.861 97.546C209.43 96.6087 208.822 95.798 208.037 95.114C207.251 94.4047 206.301 93.86 205.187 93.48C204.097 93.0747 202.919 92.872 201.653 92.872C200.361 92.872 199.17 93.0747 198.081 93.48C196.991 93.86 196.041 94.392 195.231 95.076C194.42 95.76 193.799 96.5833 193.369 97.546C192.963 98.4833 192.761 99.4967 192.761 100.586C192.761 101.675 192.963 102.701 193.369 103.664C193.799 104.601 194.42 105.412 195.231 106.096C196.041 106.78 196.991 107.325 198.081 107.73C199.17 108.11 200.361 108.3 201.653 108.3ZM225.601 114V87.4H231.605L248.515 106.4L247.489 106.21C247.337 105.298 247.223 104.437 247.147 103.626C247.071 102.79 246.995 101.979 246.919 101.194C246.868 100.409 246.817 99.636 246.767 98.876C246.741 98.116 246.729 97.3307 246.729 96.52C246.729 95.7093 246.729 94.8607 246.729 93.974V87.4H252.999V114H246.919L229.401 94.392L231.111 94.658C231.212 95.3927 231.301 96.0893 231.377 96.748C231.453 97.3813 231.516 98.0147 231.567 98.648C231.643 99.2813 231.706 99.9273 231.757 100.586C231.807 101.219 231.833 101.916 231.833 102.676C231.858 103.411 231.871 104.221 231.871 105.108V114H225.601ZM270.145 114V93.1H260.721V87.4H286.181V93.1H276.605V114H270.145ZM288.265 114L300.273 87.4H306.087L318.057 114H311.445L304.833 99.218C304.58 98.686 304.339 98.154 304.111 97.622C303.909 97.0647 303.706 96.52 303.503 95.988C303.301 95.4307 303.111 94.886 302.933 94.354C302.756 93.7967 302.591 93.2647 302.439 92.758L303.769 92.72C303.592 93.3027 303.415 93.86 303.237 94.392C303.06 94.924 302.857 95.4687 302.629 96.026C302.427 96.558 302.211 97.09 301.983 97.622C301.755 98.154 301.527 98.6987 301.299 99.256L294.725 114H288.265ZM293.889 109.136L295.941 104.272H310.267L311.635 109.136H293.889ZM324.609 114V87.4H338.251C340.353 87.4 342.139 87.666 343.609 88.198C345.078 88.73 346.18 89.4773 346.915 90.44C347.649 91.4027 348.017 92.568 348.017 93.936C348.017 95.4307 347.599 96.6973 346.763 97.736C345.952 98.7747 344.723 99.4967 343.077 99.902L343.153 99.18C344.318 99.4333 345.369 99.8513 346.307 100.434C347.269 101.017 348.029 101.777 348.587 102.714C349.144 103.626 349.423 104.703 349.423 105.944C349.423 107.439 349.131 108.705 348.549 109.744C347.966 110.757 347.168 111.581 346.155 112.214C345.167 112.822 344.052 113.278 342.811 113.582C341.569 113.861 340.29 114 338.973 114H324.609ZM330.689 108.604H338.973C339.783 108.604 340.493 108.503 341.101 108.3C341.709 108.072 342.19 107.743 342.545 107.312C342.899 106.856 343.077 106.299 343.077 105.64C343.077 104.956 342.861 104.411 342.431 104.006C342 103.575 341.455 103.271 340.797 103.094C340.138 102.891 339.467 102.79 338.783 102.79H330.689V108.604ZM330.689 97.964H337.909C338.669 97.964 339.327 97.8627 339.885 97.66C340.467 97.432 340.911 97.128 341.215 96.748C341.519 96.368 341.671 95.8867 341.671 95.304C341.671 94.468 341.303 93.8473 340.569 93.442C339.834 93.0113 338.871 92.796 337.681 92.796H330.689V97.964ZM358.123 114V108.414H364.089V92.986H358.123V87.4H376.553V92.986H370.549V108.414H376.553V114H358.123ZM387.026 114V87.4H393.486V108.3H408.306V114H387.026ZM416.718 114V108.414H422.684V92.986H416.718V87.4H435.148V92.986H429.144V108.414H435.148V114H416.718ZM445.622 114V87.4H458.466C460.746 87.4 462.773 87.742 464.546 88.426C466.345 89.11 467.878 90.06 469.144 91.276C470.411 92.492 471.374 93.9107 472.032 95.532C472.716 97.128 473.058 98.8507 473.058 100.7C473.058 102.575 472.716 104.323 472.032 105.944C471.374 107.54 470.411 108.946 469.144 110.162C467.903 111.353 466.37 112.29 464.546 112.974C462.748 113.658 460.721 114 458.466 114H445.622ZM452.082 109.592L451.208 108.3H458.276C459.619 108.3 460.797 108.11 461.81 107.73C462.849 107.325 463.698 106.78 464.356 106.096C465.04 105.387 465.547 104.576 465.876 103.664C466.231 102.727 466.408 101.739 466.408 100.7C466.408 99.6613 466.231 98.686 465.876 97.774C465.547 96.862 465.04 96.064 464.356 95.38C463.672 94.6707 462.824 94.1133 461.81 93.708C460.797 93.3027 459.619 93.1 458.276 93.1H451.094L452.082 91.884V109.592ZM477.078 114L489.086 87.4H494.9L506.87 114H500.258L493.646 99.218C493.393 98.686 493.152 98.154 492.924 97.622C492.721 97.0647 492.519 96.52 492.316 95.988C492.113 95.4307 491.923 94.886 491.746 94.354C491.569 93.7967 491.404 93.2647 491.252 92.758L492.582 92.72C492.405 93.3027 492.227 93.86 492.05 94.392C491.873 94.924 491.67 95.4687 491.442 96.026C491.239 96.558 491.024 97.09 490.796 97.622C490.568 98.154 490.34 98.6987 490.112 99.256L483.538 114H477.078ZM482.702 109.136L484.754 104.272H499.08L500.448 109.136H482.702ZM513.421 114V87.4H526.265C528.545 87.4 530.572 87.742 532.345 88.426C534.144 89.11 535.676 90.06 536.943 91.276C538.21 92.492 539.172 93.9107 539.831 95.532C540.515 97.128 540.857 98.8507 540.857 100.7C540.857 102.575 540.515 104.323 539.831 105.944C539.172 107.54 538.21 108.946 536.943 110.162C535.702 111.353 534.169 112.29 532.345 112.974C530.546 113.658 528.52 114 526.265 114H513.421ZM519.881 109.592L519.007 108.3H526.075C527.418 108.3 528.596 108.11 529.609 107.73C530.648 107.325 531.496 106.78 532.155 106.096C532.839 105.387 533.346 104.576 533.675 103.664C534.03 102.727 534.207 101.739 534.207 100.7C534.207 99.6613 534.03 98.686 533.675 97.774C533.346 96.862 532.839 96.064 532.155 95.38C531.471 94.6707 530.622 94.1133 529.609 93.708C528.596 93.3027 527.418 93.1 526.075 93.1H518.893L519.881 91.884V109.592ZM549.343 114V87.4H570.851V92.91H555.613V108.49H571.231V114H549.343ZM552.611 103.094V97.85H569.141V103.094H552.611Z" fill="#1F4B88"/>
<defs>
<clipPath id="clip0_1_11">
<rect width="140" height="151" fill="white"/>
</clipPath>
</defs>
</svg>
