<svg width="140" height="151" viewBox="0 0 140 151" fill="none" xmlns="http://www.w3.org/2000/svg">
<path d="M103.27 7L132.486 31.8343C132.748 32.0565 132.922 32.364 132.979 32.7025C133.201 34.0383 131.636 34.9255 130.604 34.0484L103.27 9.5H70H36L8.5 44.027V52.173L8.5 60.3189C8.5 64.4088 14.0182 67.7243 18.1081 67.7243H116.816C124.91 67.7243 131.506 74.2234 131.625 82.3174L132.151 118.081L104.751 144H35.1404L10.9047 115.358C10.7725 115.201 10.6849 115.012 10.6513 114.81C10.4607 113.667 11.9035 113.005 12.6456 113.896L35.8809 141.778H103.27L130.67 115.119V84.0162C130.67 75.8364 124.039 69.2054 115.859 69.2054H14.4054C10.3155 69.2054 7 65.8899 7 61.8V52.9135V44.027L35.1404 7H103.27Z" fill="#1F4B88"/>
<path d="M92.9023 35.8811L105.076 45.0112C106.278 45.9128 108.008 45.2197 108.255 43.7374C108.377 43.0045 108.084 42.2642 107.493 41.8139L94.4929 31.9092C93.4611 31.1231 92.1997 30.6973 90.9025 30.6973H55.1951C53.2966 30.6973 51.5131 31.6072 50.3987 33.1442L31.8251 58.7632C31.092 59.7744 30.6972 60.9915 30.6972 62.2405V96.4317C30.6972 97.9682 31.2941 99.4445 32.362 100.549L50.4262 119.236C51.5424 120.391 53.0797 121.043 54.6857 121.043H90.6289C92.0925 121.043 93.5042 120.502 94.5921 119.522L107.243 108.137C107.542 107.867 107.713 107.484 107.713 107.081C107.713 105.871 106.296 105.215 105.374 105.999L92.9023 116.6H52.1727L34.3999 97.3459V60.3189L52.1727 35.8811H92.9023Z" fill="#1F4B88"/>
<path d="M103.27 7L132.486 31.8343C132.748 32.0565 132.922 32.364 132.979 32.7025C133.201 34.0383 131.636 34.9255 130.604 34.0484L103.27 9.5H70H36L8.5 44.027V52.173L8.5 60.3189C8.5 64.4088 14.0182 67.7243 18.1081 67.7243H116.816C124.91 67.7243 131.506 74.2234 131.625 82.3174L132.151 118.081L104.751 144H35.1404L10.9047 115.358C10.7725 115.201 10.6849 115.012 10.6513 114.81C10.4607 113.667 11.9035 113.005 12.6456 113.896L35.8809 141.778H103.27L130.67 115.119V84.0162C130.67 75.8364 124.039 69.2054 115.859 69.2054H14.4054C10.3155 69.2054 7 65.8899 7 61.8V52.9135V44.027L35.1404 7H103.27Z" stroke="#1F4B88" stroke-width="14"/>
<path d="M92.9023 35.8811L105.076 45.0112C106.278 45.9128 108.008 45.2197 108.255 43.7374C108.377 43.0045 108.084 42.2642 107.493 41.8139L94.4929 31.9092C93.4611 31.1231 92.1997 30.6973 90.9025 30.6973H55.1951C53.2966 30.6973 51.5131 31.6072 50.3987 33.1442L31.8251 58.7632C31.092 59.7744 30.6972 60.9915 30.6972 62.2405V96.4317C30.6972 97.9682 31.2941 99.4445 32.362 100.549L50.4262 119.236C51.5424 120.391 53.0797 121.043 54.6857 121.043H90.6289C92.0925 121.043 93.5042 120.502 94.5921 119.522L107.243 108.137C107.542 107.867 107.713 107.484 107.713 107.081C107.713 105.871 106.296 105.215 105.374 105.999L92.9023 116.6H52.1727L34.3999 97.3459V60.3189L52.1727 35.8811H92.9023Z" stroke="#1F4B88" stroke-width="14"/>
</svg>
